<svg width="10" height="10" viewBox="0 0 10 10" fill="none" xmlns="http://www.w3.org/2000/svg">
<g clip-path="url(#clip0)">
<path d="M5.91617 5.00803L9.80998 1.11411C10.0634 0.860827 10.0634 0.451302 9.80998 0.198019C9.55669 -0.0552642 9.14717 -0.0552642 8.89388 0.198019L4.99996 4.09194L1.10614 0.198019C0.852742 -0.0552642 0.443336 -0.0552642 0.190052 0.198019C-0.0633506 0.451302 -0.0633506 0.860827 0.190052 1.11411L4.08386 5.00803L0.190052 8.90195C-0.0633506 9.15523 -0.0633506 9.56476 0.190052 9.81804C0.316279 9.94439 0.482248 10.0079 0.648098 10.0079C0.813949 10.0079 0.9798 9.94439 1.10614 9.81804L4.99996 5.92412L8.89388 9.81804C9.02023 9.94439 9.18608 10.0079 9.35193 10.0079C9.51778 10.0079 9.68363 9.94439 9.80998 9.81804C10.0634 9.56476 10.0634 9.15523 9.80998 8.90195L5.91617 5.00803Z" fill="#2B2839"/>
</g>
<defs>
<clipPath id="clip0">
<rect width="10" height="10" fill="white"/>
</clipPath>
</defs>
</svg>
