<svg width="14" height="14" viewBox="0 0 14 14" fill="none" xmlns="http://www.w3.org/2000/svg">
<path d="M0.132525 13.1594L0.00658824 13.6878C0.00253394 13.7047 0.00152036 13.722 0.00101357 13.7389C0.00101357 13.7425 0 13.7455 0 13.7488C0.000253394 13.7777 0.00658824 13.8058 0.0164706 13.8329C0.0187511 13.8393 0.0212851 13.8449 0.0240724 13.8509C0.0364887 13.878 0.0519457 13.9041 0.0737376 13.9259C0.09781 13.95 0.12619 13.9685 0.156851 13.9812C0.187511 13.9938 0.220199 14.0002 0.252887 14.0002C0.272398 14.0002 0.292163 13.9979 0.311421 13.9933L0.84 13.8674L0.132525 13.1594Z" fill="#2B2839"/>
<path d="M13.333 0.666679C12.4436 -0.222226 10.9969 -0.222226 10.1075 0.666679L0.969639 9.80456C0.965332 9.80887 0.962798 9.81419 0.958997 9.81875C0.953676 9.82483 0.949114 9.83142 0.9443 9.83801C0.93087 9.85676 0.920481 9.87678 0.912626 9.89857C0.910345 9.90516 0.907051 9.91099 0.905277 9.91757C0.904517 9.92011 0.902997 9.92264 0.902237 9.92518L0.27002 12.5807L1.41891 13.7294L4.07447 13.0972C4.08131 13.0956 4.08739 13.0918 4.09398 13.0896C4.1026 13.0868 4.11071 13.0835 4.11907 13.0797C4.13731 13.0713 4.15429 13.0609 4.17 13.0485C4.17608 13.0437 4.18242 13.0401 4.18824 13.0348C4.19027 13.0328 4.19281 13.0318 4.19483 13.0298L13.333 3.89162C14.2221 3.00272 14.2221 1.55584 13.333 0.666679ZM4.34738 12.1609L4.43708 11.3543L10.1075 5.68362C10.2066 5.58454 10.2066 5.4244 10.1075 5.32532C10.0084 5.22624 9.8483 5.22624 9.74922 5.32532L4.07878 10.996L2.86933 11.1303L3.00363 9.92087L8.67458 4.25043C8.77366 4.15135 8.77366 3.9912 8.67458 3.89213C8.5755 3.79305 8.41536 3.79305 8.31628 3.89213L2.64533 9.56257L1.83878 9.65227L8.85348 2.63757L11.3621 5.14617L4.34738 12.1609ZM11.7204 4.78787L9.21177 2.27928L9.57007 1.92098L12.0787 4.42957L11.7204 4.78787ZM12.437 4.07128L9.92837 1.56268L10.2869 1.20413L12.7955 3.71272L12.437 4.07128Z" fill="#2B2839"/>
</svg>
