<svg width="16" height="16" viewBox="0 0 16 16" fill="none" xmlns="http://www.w3.org/2000/svg">
<g clip-path="url(#clip0)">
<path d="M14.9252 5.93568L10.0638 1.07431C9.88075 0.891246 9.88075 0.594465 10.0638 0.411402C10.613 -0.137785 11.5034 -0.137785 12.0526 0.411402L15.5881 3.94693C16.1373 4.49612 16.1373 5.3865 15.5881 5.93568C15.405 6.11875 15.1082 6.11875 14.9252 5.93568Z" fill="#2B2839"/>
<path d="M1.35973 13.0936C0.719391 13.7339 0.255016 14.5342 0.0167659 15.4078C-0.0274841 15.5701 0.0186096 15.7437 0.137547 15.8626C0.256485 15.9815 0.430016 16.0276 0.592328 15.9834C1.46595 15.7451 2.2662 15.2807 2.90655 14.6404L6.57433 10.9726L5.02752 9.42578L1.35973 13.0936Z" fill="#2B2839"/>
<path d="M6.1974 4.04059C5.32771 4.19828 4.53768 4.612 3.91268 5.237L3.36996 5.77972C3.1869 5.96278 3.1869 6.25956 3.36996 6.44262L9.55715 12.6298C9.74021 12.8129 10.037 12.8129 10.2201 12.6298L10.7628 12.0871C11.3878 11.4621 11.8015 10.6721 11.9592 9.80234C12.0586 9.25418 12.0514 8.70003 11.9411 8.16365L7.83612 4.05865C7.29974 3.94837 6.74556 3.94118 6.1974 4.04059Z" fill="#2B2839"/>
<path d="M8.89282 3.79175L10.1727 2.51188L13.4868 5.82594L12.2069 7.10581L8.89282 3.79175Z" fill="#2B2839"/>
</g>
<defs>
<clipPath id="clip0">
<rect width="16" height="16" fill="white"/>
</clipPath>
</defs>
</svg>
